<svg width="1064" height="464" viewBox="0 0 1064 464" fill="none" xmlns="http://www.w3.org/2000/svg">
<g filter="url(#filter0_b_126_1228)">
<path d="M997.894 277.434L1024.66 297.064C1028.58 299.935 1030.89 304.498 1030.89 309.351V355.197V456.89C1030.89 460.084 1028.3 462.673 1025.1 462.673C1023.4 462.673 1021.78 461.918 1020.68 460.611L977.22 408.918C974.912 406.172 973.646 402.7 973.646 399.113V355.197V289.721C973.646 277.24 987.83 270.053 997.894 277.434Z" fill="#D9D9D9" fill-opacity="0.05"/>
<path d="M1048.24 206.121H988.883C980.468 206.121 973.646 199.3 973.646 190.885V150.489V91.4243V67.2381C973.646 59.7711 967.593 53.7179 960.126 53.7179C952.659 53.7179 946.606 47.6646 946.606 40.1976V16.5951C946.606 8.1801 953.428 1.35839 961.843 1.35839H1048.24C1056.65 1.35839 1063.48 8.1801 1063.48 16.5951V106.661V135.253V190.885C1063.48 199.3 1056.65 206.121 1048.24 206.121Z" fill="#D9D9D9" fill-opacity="0.05"/>
<path d="M946.606 104.759V190.885C946.606 199.3 939.784 206.121 931.369 206.121H906.68C898.265 206.121 891.443 199.3 891.443 190.885V150.489H867.216H814.296H769.294H723.635C720.003 150.489 716.49 149.192 713.73 146.83L689.644 126.223C682.475 120.089 682.547 108.981 689.795 102.94L710.964 85.2993C713.702 83.0173 717.154 81.7676 720.719 81.7676H740.959H814.296H867.216H931.369C939.784 81.7676 946.606 88.5893 946.606 97.0043V104.759Z" fill="#D9D9D9" fill-opacity="0.05"/>
<path d="M906.68 259.652H931.369C939.784 259.652 946.606 266.474 946.606 274.889V344.362V369.001C946.606 377.416 939.784 384.237 931.369 384.237H872.216H814.296H757.626H720.658C717.13 384.237 713.712 383.013 710.986 380.774L689.977 363.516C682.653 357.5 682.541 346.327 689.743 340.165L713.73 319.642C716.49 317.281 720.003 315.983 723.635 315.983H757.626H814.296H872.216H891.443V274.889C891.443 266.474 898.265 259.652 906.68 259.652Z" fill="#D9D9D9" fill-opacity="0.05"/>
<path d="M664.684 325.483L683.285 309.774C690.46 303.716 690.499 292.673 683.369 286.563L657.189 264.129C654.428 261.763 650.911 260.462 647.275 260.462H590.401C588.37 260.462 586.408 261.2 584.881 262.539C581.016 265.925 581.084 271.962 585.025 275.26L645.073 325.525C650.752 330.279 659.026 330.261 664.684 325.483Z" fill="#D9D9D9" fill-opacity="0.05"/>
<path d="M590.573 205.791H647.333C650.934 205.791 654.419 204.516 657.169 202.191L683.368 180.046C690.527 173.995 690.576 162.977 683.472 156.862L664.504 140.536C658.841 135.662 650.479 135.613 644.759 140.422L585.045 190.625C581.065 193.971 580.946 200.057 584.792 203.556C586.374 204.994 588.435 205.791 590.573 205.791Z" fill="#D9D9D9" fill-opacity="0.05"/>
<path d="M584.747 150.708H544.99C536.817 150.708 530.191 144.083 530.191 135.91C530.191 131.534 532.128 127.382 535.481 124.57L581.406 86.0592L633.483 42.3884L678.591 4.56172C681.335 2.261 684.801 1 688.381 1H725.381H786.96C795.375 1 802.197 7.82171 802.197 16.2367V38.4812C802.197 46.8962 795.375 53.7179 786.96 53.7179H725.381H710.491C706.886 53.7179 703.398 54.996 700.646 57.3251L671.772 81.7676L620.134 125.479L594.592 147.101C591.84 149.43 588.352 150.708 584.747 150.708Z" fill="#D9D9D9" fill-opacity="0.05"/>
<path d="M823.163 38.4812V16.2367C823.163 7.82171 829.985 1 838.4 1H896.94C905.355 1 912.176 7.8217 912.176 16.2367V38.4811C912.176 46.8962 905.355 53.7179 896.94 53.7179H838.4C829.985 53.7179 823.163 46.8962 823.163 38.4812Z" fill="#D9D9D9" fill-opacity="0.05"/>
<path d="M956.746 417.727L972.934 437.9C980.937 447.872 973.838 462.673 961.051 462.673H900.551H838.067C829.652 462.673 822.83 455.851 822.83 447.436V427.263C822.83 418.848 829.652 412.026 838.067 412.026H900.551H944.863C949.483 412.026 953.854 414.123 956.746 417.727Z" fill="#D9D9D9" fill-opacity="0.05"/>
<path d="M729.633 462.673H787.049C795.464 462.673 802.286 455.851 802.286 447.436V427.263C802.286 418.848 795.464 412.026 787.049 412.026H737.548C731.281 412.026 725.653 415.864 723.364 421.698L715.449 441.871C711.527 451.865 718.896 462.673 729.633 462.673Z" fill="#D9D9D9" fill-opacity="0.05"/>
<path d="M701.212 422.21L687.18 458.496C686.207 461.013 683.786 462.673 681.087 462.673C679.552 462.673 678.066 462.132 676.889 461.146L602.201 398.534L535.573 341.439C532.365 338.69 530.519 334.677 530.519 330.452C530.519 322.461 536.997 315.983 544.988 315.983H584.723C588.295 315.983 591.754 317.238 594.495 319.529L642.203 359.409L696.773 405.024C701.781 409.21 703.566 416.122 701.212 422.21Z" fill="#D9D9D9" fill-opacity="0.05"/>
<path d="M559.856 462.673H623.596C625.001 462.673 626.337 462.064 627.258 461.003C629.04 458.952 628.79 455.838 626.704 454.097L570.965 407.59C568.226 405.305 564.772 404.053 561.204 404.053H559.856C551.441 404.053 544.619 410.875 544.619 419.29V447.436C544.619 455.851 551.441 462.673 559.856 462.673Z" fill="#D9D9D9" fill-opacity="0.05"/>
<path d="M544.619 43.4971V16.5311C544.619 8.14114 551.402 1.32984 559.792 1.29454L627.656 1.00897C628.996 1.00332 630.261 1.6316 631.066 2.70348C632.421 4.50719 632.128 7.05585 630.398 8.50454L574.683 55.1771C571.94 57.4747 568.476 58.7338 564.899 58.7338H559.856C551.441 58.7338 544.619 51.9121 544.619 43.4971Z" fill="#D9D9D9" fill-opacity="0.05"/>
<path d="M973.646 91.4243V150.489M973.646 91.4243H1048.24C1056.65 91.4243 1063.48 98.246 1063.48 106.661V135.253C1063.48 143.668 1056.65 150.489 1048.24 150.489H973.646M973.646 91.4243V67.2381C973.646 59.7711 967.593 53.7179 960.126 53.7179V53.7179C952.659 53.7179 946.606 47.6646 946.606 40.1976V16.5951C946.606 8.1801 953.428 1.35839 961.843 1.35839H1048.24C1056.65 1.35839 1063.48 8.1801 1063.48 16.5951V190.885C1063.48 199.3 1056.65 206.121 1048.24 206.121H988.883C980.468 206.121 973.646 199.3 973.646 190.885V150.489M946.606 104.759V190.885C946.606 199.3 939.784 206.121 931.369 206.121H906.68C898.265 206.121 891.443 199.3 891.443 190.885V150.489M946.606 104.759L891.443 150.489M946.606 104.759V97.0043C946.606 88.5893 939.784 81.7676 931.369 81.7676H814.296M891.443 150.489H814.296M946.606 344.362L891.443 315.983M581.406 86.0592L535.481 124.57C532.128 127.382 530.191 131.534 530.191 135.91V135.91C530.191 144.083 536.817 150.708 544.99 150.708H584.747C588.352 150.708 591.84 149.43 594.592 147.101L620.134 125.479M581.406 86.0592L620.134 125.479M581.406 86.0592L633.483 42.3884M620.134 125.479L671.772 81.7676M671.772 81.7676L700.646 57.3251C703.398 54.996 706.886 53.7179 710.491 53.7179H725.381M671.772 81.7676L633.483 42.3884M633.483 42.3884L678.591 4.56172C681.335 2.261 684.801 1 688.381 1H725.381M725.381 53.7179H786.96C795.375 53.7179 802.197 46.8962 802.197 38.4812V16.2367C802.197 7.82171 795.375 1 786.96 1H725.381M725.381 53.7179V1M769.294 150.489L740.959 81.7676M740.959 81.7676H720.719C717.154 81.7676 713.702 83.0173 710.964 85.2993L689.795 102.94C682.547 108.981 682.475 120.089 689.644 126.223L713.73 146.83C716.49 149.192 720.003 150.489 723.635 150.489H814.296M740.959 81.7676H814.296M814.296 150.489V81.7676M814.296 150.489H867.216V116.129V81.7676H814.296M757.626 315.983H723.635C720.003 315.983 716.49 317.281 713.73 319.642L689.743 340.165C682.541 346.327 682.653 357.5 689.977 363.516L710.986 380.774C713.712 383.013 717.13 384.237 720.658 384.237H931.369C939.784 384.237 946.606 377.416 946.606 369.001V274.889C946.606 266.474 939.784 259.652 931.369 259.652H906.68C898.265 259.652 891.443 266.474 891.443 274.889V315.983M757.626 315.983V384.237M757.626 315.983H814.296M814.296 315.983V384.237M814.296 315.983H872.216M891.443 315.983H872.216M872.216 384.237V315.983M973.646 355.197H1030.89M1030.89 355.197V456.89C1030.89 460.084 1028.3 462.673 1025.1 462.673V462.673C1023.4 462.673 1021.78 461.918 1020.68 460.611L977.22 408.918C974.912 406.172 973.646 402.7 973.646 399.113V289.721C973.646 277.24 987.83 270.053 997.894 277.434L1024.66 297.064C1028.58 299.935 1030.89 304.498 1030.89 309.351V355.197ZM900.551 462.673V412.026M900.551 412.026H838.067C829.652 412.026 822.83 418.848 822.83 427.263V447.436C822.83 455.851 829.652 462.673 838.067 462.673H961.051C973.838 462.673 980.937 447.873 972.934 437.9L956.746 417.727C953.855 414.123 949.483 412.026 944.863 412.026H900.551ZM642.203 359.409L602.201 398.534M602.201 398.534L676.889 461.146C678.066 462.132 679.552 462.673 681.087 462.673V462.673C683.786 462.673 686.207 461.013 687.18 458.496L701.212 422.21C703.566 416.122 701.781 409.21 696.773 405.024L594.495 319.529C591.754 317.238 588.295 315.983 584.723 315.983H544.988C536.997 315.983 530.519 322.461 530.519 330.452V330.452C530.519 334.677 532.365 338.69 535.573 341.439L602.201 398.534ZM631.066 2.70348V2.70348C632.421 4.50719 632.128 7.05585 630.398 8.50454L574.683 55.1771C571.94 57.4747 568.476 58.7338 564.899 58.7338H559.856C551.441 58.7338 544.619 51.9121 544.619 43.4971V16.5311C544.619 8.14114 551.402 1.32984 559.792 1.29454L627.656 1.00897C628.996 1.00332 630.261 1.6316 631.066 2.70348ZM626.704 454.097L570.965 407.59C568.226 405.305 564.772 404.053 561.204 404.053H559.856C551.441 404.053 544.619 410.875 544.619 419.29V447.436C544.619 455.851 551.441 462.673 559.856 462.673H623.596C625.001 462.673 626.337 462.063 627.258 461.003V461.003C629.04 458.952 628.79 455.838 626.704 454.097ZM787.049 412.026H737.548C731.281 412.026 725.653 415.864 723.364 421.698L715.449 441.871C711.527 451.865 718.896 462.673 729.633 462.673H787.049C795.464 462.673 802.286 455.851 802.286 447.436V427.263C802.286 418.848 795.464 412.026 787.049 412.026ZM912.176 16.2367V38.4811C912.176 46.8962 905.355 53.7179 896.94 53.7179H838.4C829.985 53.7179 823.163 46.8962 823.163 38.4812V16.2367C823.163 7.82171 829.985 1 838.4 1H896.94C905.355 1 912.176 7.8217 912.176 16.2367ZM683.472 156.862L664.504 140.536C658.841 135.662 650.479 135.613 644.759 140.422L585.045 190.625C581.065 193.971 580.946 200.057 584.792 203.556V203.556C586.374 204.994 588.435 205.791 590.573 205.791H647.333C650.934 205.791 654.419 204.516 657.169 202.191L683.368 180.046C690.527 173.995 690.576 162.977 683.472 156.862ZM647.275 260.462H590.401C588.37 260.462 586.408 261.2 584.881 262.539V262.539C581.016 265.925 581.084 271.962 585.025 275.26L645.073 325.525C650.752 330.279 659.026 330.261 664.684 325.483L683.285 309.774C690.46 303.716 690.499 292.673 683.369 286.563L657.189 264.129C654.428 261.763 650.911 260.462 647.275 260.462Z" stroke="white" stroke-opacity="0.1" stroke-width="1.01571"/>
</g>
<g filter="url(#filter1_b_126_1228)">
<path d="M339.631 102.934L318.435 85.293C315.698 83.015 312.249 81.7676 308.688 81.7676H262.267H188.417H83.6003V190.555C83.6003 198.97 90.4219 205.791 98.8369 205.791H137.728V150.708H188.417H262.267L305.806 150.514C309.412 150.498 312.895 149.204 315.636 146.862L339.782 126.229C346.962 120.095 346.889 108.975 339.631 102.934Z" fill="#D9D9D9" fill-opacity="0.05"/>
<path d="M122.492 259.652H97.7301C89.3151 259.652 82.4934 266.474 82.4934 274.889V360.197V369.001C82.4934 377.416 89.3151 384.237 97.7301 384.237H167.555H220.961H277.705H308.749C312.273 384.237 315.688 383.016 318.413 380.781L339.45 363.522C346.784 357.505 346.896 346.321 339.684 340.159L315.665 319.636C312.906 317.278 309.396 315.983 305.767 315.983H277.705H220.961H167.555H137.728V274.889C137.728 266.474 130.907 259.652 122.492 259.652Z" fill="#D9D9D9" fill-opacity="0.05"/>
<path d="M364.803 325.5L346.164 309.781C338.98 303.722 338.94 292.667 346.081 286.557L372.295 264.123C375.055 261.761 378.568 260.462 382.202 260.462H439.17C441.199 260.462 443.159 261.199 444.686 262.535C448.556 265.922 448.488 271.965 444.542 275.263L384.399 325.542C378.723 330.287 370.458 330.269 364.803 325.5Z" fill="#D9D9D9" fill-opacity="0.05"/>
<path d="M438.998 205.791H382.143C378.545 205.791 375.064 204.518 372.315 202.198L346.082 180.053C338.913 174.001 338.864 162.971 345.978 156.855L364.983 140.519C370.644 135.653 378.996 135.604 384.713 140.404L444.522 190.622C448.507 193.968 448.626 200.06 444.774 203.559C443.193 204.996 441.134 205.791 438.998 205.791Z" fill="#D9D9D9" fill-opacity="0.05"/>
<path d="M444.811 150.708H484.762C492.874 150.708 499.451 144.132 499.451 136.02C499.451 131.584 497.446 127.386 493.997 124.597L419.981 64.7554L350.904 4.73511C348.131 2.32641 344.582 1 340.91 1H329.436C321.021 1 314.199 7.8217 314.199 16.2367V46.1724C314.199 50.3396 317.577 53.7179 321.744 53.7179C323.528 53.7179 325.254 54.3496 326.616 55.5011L381.87 102.213L434.974 147.107C437.724 149.433 441.209 150.708 444.811 150.708Z" fill="#D9D9D9" fill-opacity="0.05"/>
<path d="M179.085 38.4812V16.2367C179.085 7.82171 172.264 1 163.849 1H98.837C90.4219 1 83.6003 7.8217 83.6003 16.2367V38.4811C83.6003 46.8962 90.4219 53.7179 98.8369 53.7179H163.849C172.264 53.7179 179.085 46.8962 179.085 38.4812Z" fill="#D9D9D9" fill-opacity="0.05"/>
<path d="M82.4934 427.263V447.436C82.4934 455.851 89.3151 462.673 97.7301 462.673H163.249C171.664 462.673 178.485 455.851 178.485 447.436V427.263C178.485 418.848 171.664 412.026 163.249 412.026H97.7301C89.3151 412.026 82.4934 418.848 82.4934 427.263Z" fill="#D9D9D9" fill-opacity="0.05"/>
<path d="M274.904 462.673H216.165C207.75 462.673 200.929 455.851 200.929 447.436V427.263C200.929 418.848 207.75 412.026 216.165 412.026H274.904C283.319 412.026 290.141 418.848 290.141 427.263V447.436C290.141 455.851 283.319 462.673 274.904 462.673Z" fill="#D9D9D9" fill-opacity="0.05"/>
<path d="M327.733 417.043V447.436C327.733 455.851 334.555 462.673 342.97 462.673H345.155C348.76 462.673 352.248 461.394 355 459.065L419.981 404.053L494.012 341.431C497.253 338.689 499.123 334.659 499.123 330.414C499.123 322.444 492.662 315.983 484.692 315.983H444.873C441.281 315.983 437.805 317.252 435.058 319.566L383.522 362.969L333.155 405.389C329.717 408.284 327.733 412.549 327.733 417.043Z" fill="#D9D9D9" fill-opacity="0.05"/>
<path d="M512.955 462.673H405.92C404.516 462.673 403.181 462.064 402.26 461.005C400.475 458.954 400.726 455.836 402.814 454.096L458.631 407.584C461.369 405.302 464.821 404.053 468.385 404.053H512.955C521.37 404.053 528.191 410.875 528.191 419.29V447.436C528.191 455.851 521.37 462.673 512.955 462.673Z" fill="#D9D9D9" fill-opacity="0.05"/>
<path d="M527.905 43.4971V16.5526C527.905 8.15419 521.11 1.33938 512.711 1.3159L401.852 1.00595C400.514 1.0022 399.252 1.62974 398.448 2.69924C397.09 4.5047 397.383 7.05752 399.116 8.50718L454.909 55.1834C457.65 57.4771 461.111 58.7338 464.685 58.7338H512.669C521.084 58.7338 527.905 51.9121 527.905 43.4971Z" fill="#D9D9D9" fill-opacity="0.05"/>
<path d="M215.726 1.29963L277.832 1.05921C286.27 1.02655 293.128 7.85776 293.128 16.2958V38.4811C293.128 46.8962 286.306 53.7179 277.891 53.7179H215.785C207.37 53.7179 200.549 46.8962 200.549 38.4811V16.5362C200.549 8.14426 207.334 1.33212 215.726 1.29963Z" fill="#D9D9D9" fill-opacity="0.05"/>
<path d="M16.2375 462.673H33.5439C41.9589 462.673 48.7806 455.851 48.7806 447.436V376.449V298.877C48.7806 285.821 33.4346 278.812 23.5672 287.36L6.26074 302.354C2.9201 305.248 1.00079 309.45 1.00079 313.87V376.449V447.436C1.00079 455.851 7.82251 462.673 16.2375 462.673Z" fill="#D9D9D9" fill-opacity="0.05"/>
<path d="M33.5439 1.35839H16.2375C7.82251 1.35839 1.00079 8.1801 1.00079 16.5951V87.674V153.583C1.00079 158.146 3.04608 162.469 6.57428 165.363L23.8807 179.559C33.826 187.717 48.7806 180.642 48.7806 167.779V87.674V16.5951C48.7806 8.18009 41.9589 1.35839 33.5439 1.35839Z" fill="#D9D9D9" fill-opacity="0.05"/>
<path d="M83.6002 81.7676H308.688C312.249 81.7676 315.698 83.015 318.435 85.293L339.631 102.934C346.889 108.975 346.962 120.095 339.782 126.229L315.636 146.862C312.895 149.204 309.412 150.498 305.806 150.514L262.267 150.708M83.6002 81.7676V190.555C83.6002 198.97 90.4219 205.791 98.837 205.791H137.728M83.6002 81.7676L137.728 150.708M137.728 206.121V205.791M82.4934 360.197L137.728 315.983M137.728 205.791V150.708M381.87 102.213L419.981 64.7554M419.981 64.7554L493.997 124.597C497.446 127.386 499.451 131.584 499.451 136.019V136.019C499.451 144.132 492.874 150.708 484.762 150.708H444.811C441.209 150.708 437.724 149.433 434.974 147.107L326.616 55.5011C325.254 54.3496 323.528 53.7179 321.744 53.7179V53.7179C317.577 53.7179 314.199 50.3396 314.199 46.1724V16.2367C314.199 7.8217 321.021 1 329.436 1H340.91C344.582 1 348.131 2.32641 350.904 4.73511L419.981 64.7554ZM1.00079 87.674H48.7806M48.7806 87.674V167.779C48.7806 180.642 33.8259 187.717 23.8807 179.559L6.5743 165.363C3.0461 162.469 1.00079 158.146 1.00079 153.583V16.5951C1.00079 8.1801 7.82249 1.35839 16.2375 1.35839H33.5439C41.9589 1.35839 48.7806 8.18009 48.7806 16.5951V87.674ZM1.00079 376.449H48.7806M48.7806 376.449V298.877C48.7806 285.821 33.4346 278.812 23.5672 287.36L6.26074 302.354C2.92009 305.248 1.00079 309.45 1.00079 313.87V447.436C1.00079 455.851 7.82249 462.673 16.2375 462.673H33.5439C41.9589 462.673 48.7806 455.851 48.7806 447.436V376.449ZM383.522 362.969L419.981 404.053M419.981 404.053L355 459.065C352.248 461.394 348.76 462.673 345.155 462.673H342.97C334.555 462.673 327.733 455.851 327.733 447.436V417.043C327.733 412.549 329.717 408.284 333.155 405.389L435.058 319.566C437.805 317.252 441.281 315.983 444.873 315.983H484.692C492.662 315.983 499.123 322.444 499.123 330.414V330.414C499.123 334.659 497.253 338.689 494.012 341.431L419.981 404.053ZM137.728 315.983V274.889C137.728 266.474 130.907 259.652 122.492 259.652H97.7301C89.3151 259.652 82.4934 266.474 82.4934 274.889V369.001C82.4934 377.416 89.3151 384.237 97.7301 384.237H308.749C312.273 384.237 315.688 383.016 318.413 380.781L339.45 363.522C346.784 357.505 346.896 346.321 339.684 340.159L315.665 319.636C312.906 317.278 309.396 315.983 305.767 315.983H277.705M137.728 315.983H167.555M167.555 384.237V315.983M167.555 315.983H220.961M220.961 384.237V315.983M220.961 315.983H277.705M277.705 384.237V315.983M137.728 150.708H188.417M188.417 81.7676V150.708M188.417 150.708H262.267M262.267 81.7676V150.708M277.891 53.7179H215.785C207.37 53.7179 200.549 46.8962 200.549 38.4811V16.5362C200.549 8.14426 207.334 1.33212 215.726 1.29963L277.832 1.05921C286.27 1.02655 293.128 7.85776 293.128 16.2958V38.4811C293.128 46.8962 286.306 53.7179 277.891 53.7179ZM398.448 2.69924V2.69924C397.09 4.5047 397.383 7.05752 399.116 8.50718L454.909 55.1834C457.65 57.4771 461.111 58.7338 464.685 58.7338H512.669C521.084 58.7338 527.905 51.9121 527.905 43.4971V16.5526C527.905 8.15419 521.11 1.33938 512.711 1.3159L401.852 1.00595C400.514 1.0022 399.252 1.62974 398.448 2.69924ZM512.955 462.673H405.92C404.516 462.673 403.181 462.064 402.26 461.005V461.005C400.475 458.954 400.726 455.836 402.814 454.096L458.631 407.584C461.369 405.302 464.821 404.053 468.385 404.053H512.955C521.37 404.053 528.191 410.875 528.191 419.29V447.436C528.191 455.851 521.37 462.673 512.955 462.673ZM216.165 412.026H274.904C283.319 412.026 290.141 418.848 290.141 427.263V447.436C290.141 455.851 283.319 462.673 274.904 462.673H216.165C207.75 462.673 200.929 455.851 200.929 447.436V427.263C200.929 418.848 207.75 412.026 216.165 412.026ZM178.485 447.436V427.263C178.485 418.848 171.664 412.026 163.249 412.026H97.7301C89.3151 412.026 82.4934 418.848 82.4934 427.263V447.436C82.4934 455.851 89.3151 462.673 97.7301 462.673H163.249C171.664 462.673 178.485 455.851 178.485 447.436ZM83.6002 16.2367V38.4811C83.6002 46.8962 90.4219 53.7179 98.837 53.7179H163.849C172.264 53.7179 179.085 46.8962 179.085 38.4812V16.2367C179.085 7.82171 172.264 1 163.849 1H98.837C90.422 1 83.6002 7.8217 83.6002 16.2367ZM345.978 156.855L364.983 140.519C370.644 135.653 378.996 135.604 384.713 140.404L444.522 190.622C448.507 193.968 448.626 200.06 444.774 203.559V203.559C443.193 204.996 441.134 205.791 438.998 205.791H382.143C378.545 205.791 375.064 204.518 372.315 202.198L346.082 180.053C338.913 174.001 338.864 162.971 345.978 156.855ZM382.202 260.462H439.17C441.199 260.462 443.159 261.199 444.686 262.535V262.535C448.556 265.922 448.488 271.965 444.542 275.263L384.399 325.542C378.723 330.287 370.458 330.269 364.803 325.5L346.164 309.781C338.98 303.722 338.94 292.667 346.081 286.557L372.295 264.123C375.055 261.761 378.568 260.462 382.202 260.462Z" stroke="white" stroke-opacity="0.1" stroke-width="1.01571"/>
</g>
<path d="M580.786 218.526L529.154 167.355C521.345 159.615 508.752 159.631 500.962 167.39L449.449 218.696C441.61 226.503 441.6 239.192 449.425 247.013L500.311 297.868C508.055 305.607 520.581 305.682 528.417 298.036L580.675 247.046C588.675 239.24 588.725 226.393 580.786 218.526Z" fill="#9272EF"/>
<path d="M627.215 203.833L542.912 120.078C527.285 104.553 502.047 104.584 486.458 120.148L402.302 204.173C386.671 219.78 386.649 245.104 402.254 260.738L485.338 343.975C500.833 359.498 525.939 359.649 541.618 344.312L626.993 260.804C642.945 245.2 643.045 219.561 627.215 203.833Z" fill="#9272EF" fill-opacity="0.2"/>
<path d="M517.866 233.493C518.138 233.33 518.41 233.167 518.681 232.95V241.752H516.182V215.672C516.454 215.672 516.725 215.726 516.997 215.726V225.289C517.269 225.235 517.54 225.18 517.812 225.126V233.493H517.866ZM507.76 230.342C507.489 230.559 507.217 230.777 506.945 230.994V217.574C506.674 217.682 506.402 217.845 506.13 218.008V241.752H508.63V238.873C508.358 238.873 508.086 238.818 507.815 238.764L507.76 230.342ZM521.235 224.854C520.964 224.854 520.692 224.854 520.42 224.854V216.324C520.149 216.27 519.877 216.161 519.605 216.107V241.752H522.05V231.592C521.779 231.646 521.507 231.755 521.235 231.863V224.854ZM497.709 234.58C497.437 234.58 497.165 234.526 496.893 234.471V229.255C496.459 230.668 496.187 232.135 496.078 233.602C496.078 233.819 496.078 234.037 496.024 234.254C495.97 234.471 496.024 234.797 496.024 235.069V241.752H498.578V237.025C498.306 237.134 498.035 237.297 497.763 237.46L497.709 234.58ZM504.446 232.678C504.174 232.841 503.903 233.004 503.577 233.167V219.638C503.305 219.856 503.033 220.073 502.762 220.345V241.752H505.261V237.732C504.989 237.569 504.718 237.46 504.446 237.351V232.678ZM527.973 226.81C527.701 226.647 527.429 226.484 527.158 226.376V219.638C526.886 219.421 526.614 219.204 526.343 219.041V241.752H528.842V232.461C528.57 232.298 528.299 232.189 528.027 232.026V226.81H527.973ZM514.498 226.104C514.226 226.213 513.954 226.321 513.683 226.484V215.726C513.411 215.726 513.139 215.781 512.868 215.835V241.752H515.367V235.45L514.552 236.156V226.104H514.498ZM534.547 233.385C534.33 233.004 534.058 232.678 533.841 232.352V229.255C533.623 228.495 533.352 227.788 532.971 227.028V241.752H534.656V233.711L534.547 233.385ZM511.129 227.843C510.857 228.006 510.586 228.223 510.314 228.386V216.324C510.042 216.378 509.771 216.487 509.499 216.596V241.752H511.998V238.003C511.727 238.166 511.455 238.275 511.183 238.438L511.129 227.843ZM531.287 234.308V229.418C531.015 229.147 530.744 228.875 530.472 228.658V222.898C530.2 222.572 529.929 222.246 529.657 221.92V241.752H532.156V235.178C531.885 234.852 531.613 234.58 531.287 234.308ZM501.077 234.2C500.806 234.308 500.534 234.363 500.262 234.417V222.898C499.991 223.279 499.665 223.659 499.393 224.039V241.752H501.892V236.591C501.621 236.536 501.349 236.536 501.023 236.536V234.2H501.077ZM524.604 225.398C524.332 225.343 524.061 225.235 523.789 225.18V217.574C523.517 217.465 523.246 217.302 522.974 217.193V241.752H525.473V231.32C525.202 231.266 524.93 231.266 524.658 231.266V225.398H524.604Z" fill="white"/>
<defs>
<filter id="filter0_b_126_1228" x="525.621" y="-3.57064" width="542.426" height="470.813" filterUnits="userSpaceOnUse" color-interpolation-filters="sRGB">
<feFlood flood-opacity="0" result="BackgroundImageFix"/>
<feGaussianBlur in="BackgroundImageFix" stdDeviation="2.03142"/>
<feComposite in2="SourceAlpha" operator="in" result="effect1_backgroundBlur_126_1228"/>
<feBlend mode="normal" in="SourceGraphic" in2="effect1_backgroundBlur_126_1228" result="shape"/>
</filter>
<filter id="filter1_b_126_1228" x="-7.63347" y="-7.63347" width="544.458" height="478.939" filterUnits="userSpaceOnUse" color-interpolation-filters="sRGB">
<feFlood flood-opacity="0" result="BackgroundImageFix"/>
<feGaussianBlur in="BackgroundImageFix" stdDeviation="4.06283"/>
<feComposite in2="SourceAlpha" operator="in" result="effect1_backgroundBlur_126_1228"/>
<feBlend mode="normal" in="SourceGraphic" in2="effect1_backgroundBlur_126_1228" result="shape"/>
</filter>
</defs>
</svg>
